#N canvas 407 173 1198 723 10;
#X obj 148 129 readsf~ 8, f 32;
#X floatatom 367 130 5 0 1 2 r:front front -, f 5;
#X floatatom 421 131 5 0 1 2 r:right right -, f 5;
#X floatatom 470 130 5 0 1 2 r:back back -, f 5;
#X floatatom 519 129 5 0 1 2 r:left left -, f 5;
#X obj 168 292 *~;
#X obj 194 292 *~;
#X obj 588 22 bng 15 250 50 0 empty empty load 17 7 0 10 -262144 -1
-1;
#X obj 231 293 *~;
#X obj 262 294 *~;
#X obj 293 297 *~;
#X obj 319 297 *~;
#X obj 348 297 *~;
#X obj 376 297 *~;
#X floatatom 110 90 5 0 0 2 r:control control -, f 5;
#X obj 598 115 bng 15 250 50 0 empty empty start 17 7 0 10 -262144
-1 -1;
#X msg 598 150 1;
#X obj 598 193 s control;
#X obj 668 117 bng 15 250 50 0 empty empty stop 17 7 0 10 -262144 -1
-1;
#X obj 668 195 s control;
#X msg 668 152 0;
#X obj 924 162 vsl 15 128 1 -1 0 0 empty z r:z 10 -9 0 10 -262144 -1
-1 0 1;
#X obj 782 208 hsl 128 15 -1 1 0 0 empty x r:x 10 -8 0 10 -262144 -1
-1 0 1;
#X floatatom 780 335 5 0 0 3 s:right - right, f 5;
#X obj 781 296 max 0;
#X obj 911 347 max 0;
#X floatatom 911 377 5 0 0 3 s:front - front, f 5;
#X obj 958 313 * -1;
#X obj 957 347 max 0;
#X floatatom 958 376 5 0 0 3 s:back - back, f 5;
#X obj 835 265 * -1;
#X obj 831 295 max 0;
#X floatatom 833 336 5 0 0 3 s:left - left, f 5;
#X obj 783 50 hsl 128 15 0 360 0 0 empty rotationY r:rotationY_(deg)
-2 -8 0 10 -262144 -1 -1 0 1;
#X obj 813 89 * 0.0174533;
#X obj 792 120 sin;
#X obj 912 122 cos;
#X text 829 68 deg2rad;
#X obj 589 79 s message;
#X msg 590 47 open sound.wav, f 17;
#X obj 168 58 r message;
#X obj 150 392 clip~ -1 1, f 22;
#X obj 310 392 clip~ -1 1, f 22;
#X obj 255 463 dac~;
#X connect 0 0 5 0;
#X connect 0 1 6 0;
#X connect 0 2 8 0;
#X connect 0 3 9 0;
#X connect 0 4 10 0;
#X connect 0 5 11 0;
#X connect 0 6 12 0;
#X connect 0 7 13 0;
#X connect 1 0 5 1;
#X connect 1 0 6 1;
#X connect 2 0 8 1;
#X connect 2 0 9 1;
#X connect 3 0 10 1;
#X connect 3 0 11 1;
#X connect 4 0 12 1;
#X connect 4 0 13 1;
#X connect 5 0 41 0;
#X connect 6 0 42 0;
#X connect 7 0 39 0;
#X connect 8 0 41 0;
#X connect 9 0 42 0;
#X connect 10 0 41 0;
#X connect 11 0 42 0;
#X connect 12 0 41 0;
#X connect 13 0 42 0;
#X connect 14 0 0 0;
#X connect 15 0 16 0;
#X connect 16 0 17 0;
#X connect 18 0 20 0;
#X connect 20 0 19 0;
#X connect 21 0 25 0;
#X connect 21 0 27 0;
#X connect 22 0 24 0;
#X connect 22 0 30 0;
#X connect 24 0 23 0;
#X connect 25 0 26 0;
#X connect 27 0 28 0;
#X connect 28 0 29 0;
#X connect 30 0 31 0;
#X connect 31 0 32 0;
#X connect 33 0 34 0;
#X connect 34 0 35 0;
#X connect 34 0 36 0;
#X connect 35 0 22 0;
#X connect 36 0 21 0;
#X connect 39 0 38 0;
#X connect 40 0 0 0;
#X connect 41 0 43 0;
#X connect 42 0 43 1;
